<?xml version="1.0" encoding="utf-8"?>
<!-- Generator: Adobe Illustrator 16.0.3, SVG Export Plug-In . SVG Version: 6.00 Build 0)  -->
<!DOCTYPE svg PUBLIC "-//W3C//DTD SVG 1.1//EN" "http://www.w3.org/Graphics/SVG/1.1/DTD/svg11.dtd">
<svg version="1.1" id="Layer_1" xmlns="http://www.w3.org/2000/svg" xmlns:xlink="http://www.w3.org/1999/xlink" x="0px" y="0px"
	 width="164px" height="99px" viewBox="0 0 164 99" enable-background="new 0 0 164 99" xml:space="preserve">
<path fill="#333333" d="M20.355,31.356c0.553-0.539,5.958-6.215,5.958-6.215c0.295-0.288,0.443-0.665,0.443-1.043
	c0-0.376-0.148-0.754-0.443-1.042c0,0-5.405-5.676-5.958-6.216c-0.552-0.54-1.548-0.577-2.139,0c-0.59,0.575-0.636,1.38,0,2.085
	l4.96,5.172l-4.96,5.173c-0.636,0.707-0.59,1.51,0,2.085C18.807,31.932,19.803,31.896,20.355,31.356z"/>
<path fill="#333333" d="M64.158,16.839c-0.553,0.539-5.958,6.215-5.958,6.215c-0.295,0.288-0.443,0.665-0.443,1.043
	c0,0.376,0.148,0.754,0.443,1.042c0,0,5.405,5.676,5.958,6.216c0.552,0.54,1.548,0.577,2.139,0c0.59-0.575,0.636-1.38,0-2.085
	l-4.96-5.172l4.96-5.173c0.636-0.707,0.59-1.51,0-2.085C65.706,16.262,64.71,16.299,64.158,16.839z"/>
<path fill="#333333" d="M94.999,22.195c0.538,0.553,6.215,5.958,6.215,5.958c0.287,0.295,0.664,0.443,1.043,0.443
	c0.377,0,0.755-0.148,1.042-0.443c0,0,5.676-5.405,6.216-5.958c0.539-0.552,0.576-1.548,0-2.139c-0.575-0.59-1.38-0.636-2.086,0
	l-5.172,4.96l-5.173-4.96c-0.706-0.636-1.51-0.59-2.085,0C94.422,20.647,94.459,21.643,94.999,22.195z"/>
<path fill="#333333" d="M149.516,26c-0.539-0.553-6.215-5.958-6.215-5.958c-0.288-0.295-0.665-0.443-1.044-0.443
	c-0.376,0-0.754,0.148-1.041,0.443c0,0-5.677,5.405-6.216,5.958c-0.54,0.552-0.577,1.548,0,2.139c0.574,0.59,1.38,0.636,2.085,0
	l5.172-4.96l5.173,4.96c0.707,0.636,1.512,0.59,2.086,0C150.092,27.547,150.056,26.551,149.516,26z"/>
<g>
	<path fill="#FFFFFF" d="M23.761,83.146c-0.364,0.333-0.819,0.5-1.363,0.5c-0.678,0-1.228-0.248-1.648-0.746
		c-0.42-0.498-0.63-1.296-0.63-2.394c0-1.083,0.218-1.874,0.653-2.375c0.437-0.5,1.004-0.75,1.702-0.75
		c0.462,0,0.854,0.139,1.181,0.416c0.325,0.277,0.554,0.69,0.683,1.239l1.347-0.208c-0.159-0.827-0.521-1.464-1.085-1.913
		c-0.565-0.449-1.291-0.673-2.179-0.673c-0.704,0-1.354,0.165-1.952,0.496c-0.599,0.332-1.043,0.828-1.336,1.49
		c-0.292,0.662-0.438,1.434-0.438,2.316c0,1.365,0.34,2.414,1.02,3.145c0.681,0.73,1.579,1.097,2.699,1.097
		c0.894,0,1.645-0.266,2.258-0.796c0.613-0.532,0.996-1.267,1.145-2.206l-1.362-0.177C24.356,82.299,24.126,82.812,23.761,83.146z"
		/>
	<path fill="#FFFFFF" d="M22.256,73.013c-4.136,0-7.5,3.364-7.5,7.5c0,4.136,3.364,7.5,7.5,7.5c4.136,0,7.5-3.364,7.5-7.5
		C29.756,76.376,26.391,73.013,22.256,73.013z M22.256,86.649c-3.384,0-6.136-2.753-6.136-6.137c0-3.384,2.752-6.136,6.136-6.136
		c3.384,0,6.137,2.753,6.137,6.136C28.393,83.896,25.639,86.649,22.256,86.649z"/>
</g>
<path fill="#FFFFFF" d="M20.355,61.289c0.553-0.539,5.958-6.215,5.958-6.215c0.295-0.288,0.443-0.665,0.443-1.043
	c0-0.376-0.148-0.754-0.443-1.042c0,0-5.405-5.676-5.958-6.216c-0.552-0.54-1.548-0.577-2.139,0c-0.59,0.575-0.636,1.38,0,2.085
	l4.96,5.172l-4.96,5.173c-0.636,0.707-0.59,1.51,0,2.085C18.807,61.865,19.803,61.829,20.355,61.289z"/>
<path fill="#FFFFFF" d="M64.158,46.772c-0.553,0.539-5.958,6.215-5.958,6.215c-0.295,0.288-0.443,0.665-0.443,1.043
	c0,0.376,0.148,0.754,0.443,1.042c0,0,5.405,5.676,5.958,6.216c0.552,0.54,1.548,0.577,2.139,0c0.59-0.575,0.636-1.38,0-2.085
	l-4.96-5.172l4.96-5.173c0.636-0.707,0.59-1.51,0-2.085C65.706,46.195,64.71,46.232,64.158,46.772z"/>
<path fill="#FFFFFF" d="M94.999,52.128c0.538,0.553,6.215,5.958,6.215,5.958c0.287,0.295,0.664,0.443,1.043,0.443
	c0.377,0,0.755-0.148,1.042-0.443c0,0,5.676-5.405,6.216-5.958c0.539-0.552,0.576-1.548,0-2.139c-0.575-0.59-1.38-0.636-2.086,0
	l-5.172,4.96l-5.173-4.96c-0.706-0.636-1.51-0.59-2.085,0C94.422,50.58,94.459,51.576,94.999,52.128z"/>
<path fill="#FFFFFF" d="M149.516,55.933c-0.539-0.553-6.215-5.958-6.215-5.958c-0.288-0.295-0.665-0.443-1.044-0.443
	c-0.376,0-0.754,0.148-1.041,0.443c0,0-5.677,5.405-6.216,5.958c-0.54,0.552-0.577,1.548,0,2.139c0.574,0.59,1.38,0.636,2.085,0
	l5.172-4.96l5.173,4.96c0.707,0.636,1.512,0.59,2.086,0C150.092,57.48,150.056,56.484,149.516,55.933z"/>
</svg>
